<svg width="25" height="25" viewBox="0 0 25 25" fill="none" xmlns="http://www.w3.org/2000/svg">
<path d="M24.7212 0.190853C24.8517 0.302369 24.9426 0.453159 24.9804 0.620697C25.0183 0.788236 25.0009 0.963529 24.931 1.12039C22.4991 6.57984 17.392 14.1244 13.6535 18.0558C12.6057 19.1556 11.3133 19.9922 9.88163 20.4975C9.85302 20.8588 9.78626 21.3538 9.62731 21.879C9.30782 22.9279 8.56711 24.2331 6.91244 24.6485C5.30995 25.0307 3.64922 25.102 2.01995 24.8586C1.71699 24.8107 1.41829 24.7389 1.12664 24.6438C0.856828 24.5616 0.605346 24.4281 0.385936 24.2506C0.241245 24.1274 0.129753 23.9698 0.0616772 23.7922C-0.0226965 23.5644 -0.0204335 23.3134 0.0680352 23.0871C0.219038 22.6972 0.570318 22.4823 0.800796 22.3677C1.42706 22.0541 1.79424 21.6466 2.1789 21.0529C2.3299 20.8237 2.47136 20.5802 2.63508 20.3017L2.82106 19.9865C3.06107 19.5807 3.33923 19.127 3.68892 18.6368C4.52818 17.4605 5.59792 17.1645 6.4642 17.2106C6.66447 17.2218 6.85045 17.2504 7.01734 17.287C7.11589 17.0133 7.24305 16.6822 7.39565 16.3193C7.81051 15.3341 8.44154 14.0607 9.28239 13.0261C12.7411 8.77635 19.1055 3.14819 23.7739 0.127186C23.9176 0.0342946 24.0874 -0.0096834 24.2581 0.0017869C24.4288 0.0132572 24.5912 0.0795636 24.7212 0.190853ZM7.04596 18.9599C6.83503 18.868 6.60958 18.8141 6.37995 18.8007C5.98894 18.78 5.46917 18.8803 4.98278 19.5631C4.66965 20.0009 4.41851 20.4099 4.18803 20.7999L4.02113 21.0816C3.85264 21.3697 3.68257 21.6578 3.51249 21.922C3.19058 22.4443 2.78204 22.9077 2.30447 23.2924C3.40122 23.4707 5.06385 23.4691 6.52778 23.1014C7.41631 22.8802 7.86773 22.1958 8.10615 21.4143C8.22124 21.026 8.2885 20.6251 8.30643 20.2205L7.04596 18.9599ZM9.33484 19.0013C9.52558 18.9376 9.77513 18.8421 10.0628 18.71C10.9785 18.2846 11.8062 17.6907 12.5027 16.9592C15.5228 13.7822 19.5156 8.09352 22.1224 3.2214C18.0056 6.28856 13.2752 10.6386 10.5158 14.0321C9.81328 14.8963 9.25219 16.0105 8.85958 16.9385C8.66725 17.3969 8.51943 17.798 8.42247 18.0845L9.33484 19.0013ZM1.43024 23.84L1.44137 23.832C1.43795 23.8346 1.43421 23.8383 1.43024 23.84Z" fill="black"/>
</svg>
