<svg width="25" height="26" viewBox="0 0 25 26" fill="none" xmlns="http://www.w3.org/2000/svg">
<path d="M12.5 0C10.0277 0 7.61099 0.758918 5.55538 2.18078C3.49976 3.60265 1.89761 5.6236 0.951511 7.98807C0.00541586 10.3526 -0.242126 12.9544 0.24019 15.4645C0.722505 17.9746 1.91301 20.2803 3.66117 22.09C5.40933 23.8996 7.63661 25.1321 10.0614 25.6314C12.4861 26.1306 14.9995 25.8744 17.2835 24.895C19.5676 23.9156 21.5199 22.257 22.8934 20.1291C24.2669 18.0011 25 15.4993 25 12.94C24.9964 9.50925 23.6782 6.2201 21.3348 3.7942C18.9914 1.36829 15.8141 0.00376761 12.5 0ZM12.5 24.8448C10.2255 24.8448 8.00211 24.1466 6.11095 22.8385C4.21978 21.5304 2.7458 19.6711 1.87539 17.4958C1.00498 15.3204 0.777245 12.9268 1.22097 10.6175C1.6647 8.30818 2.75997 6.18695 4.36828 4.52203C5.97658 2.85712 8.02568 1.7233 10.2565 1.26395C12.4872 0.804598 14.7995 1.04035 16.9009 1.9414C19.0022 2.84244 20.7983 4.36831 22.0619 6.32605C23.3255 8.28378 24 10.5855 24 12.94C23.9967 16.0963 22.784 19.1223 20.6281 21.3542C18.4721 23.586 15.549 24.8414 12.5 24.8448Z" fill="black"/>
</svg>
