<svg width="25" height="25" viewBox="0 0 25 25" fill="none" xmlns="http://www.w3.org/2000/svg">
<path d="M23.3696 0H1.63043C1.19802 0 0.783309 0.171777 0.477543 0.477543C0.171777 0.783309 0 1.19802 0 1.63043V23.3696C0 23.802 0.171777 24.2167 0.477543 24.5225C0.783309 24.8282 1.19802 25 1.63043 25H23.3696C23.802 25 24.2167 24.8282 24.5225 24.5225C24.8282 24.2167 25 23.802 25 23.3696V1.63043C25 1.19802 24.8282 0.783309 24.5225 0.477543C24.2167 0.171777 23.802 0 23.3696 0ZM23.913 23.3696C23.913 23.5137 23.8558 23.6519 23.7539 23.7539C23.6519 23.8558 23.5137 23.913 23.3696 23.913H1.63043C1.4863 23.913 1.34806 23.8558 1.24614 23.7539C1.14422 23.6519 1.08696 23.5137 1.08696 23.3696V1.63043C1.08696 1.4863 1.14422 1.34806 1.24614 1.24614C1.34806 1.14422 1.4863 1.08696 1.63043 1.08696H23.3696C23.5137 1.08696 23.6519 1.14422 23.7539 1.24614C23.8558 1.34806 23.913 1.4863 23.913 1.63043V23.3696Z" fill="black"/>
</svg>
